<?xml version="1.0" encoding="UTF-8"?>
<svg version="1.1" xmlns="http://www.w3.org/2000/svg" width="512" height="512">
<path d="M0 0 C9.61643881 9.39788338 13.37504658 21.27037798 17.75 33.6875 C18.38389648 33.72713867 19.01779297 33.76677734 19.67089844 33.80761719 C40.8377083 35.19925997 56.11159746 38.26466409 70.75 54.6875 C75.96224112 60.89976412 79.16774825 65.10609809 79.01953125 73.40625 C78.58253926 77.1048489 77.26537087 78.98347631 74.75 81.6875 C69.43418701 84.98638883 63.64132855 86.81771574 57.65625 88.484375 C56.82411987 88.7228717 55.99198975 88.96136841 55.13464355 89.20709229 C52.5084714 89.95796533 49.87936654 90.6979002 47.25 91.4375 C45.45552292 91.94849501 43.66124988 92.46020715 41.8671875 92.97265625 C37.49710491 94.2192338 33.12435985 95.45601985 28.75 96.6875 C28.68006836 97.44667725 28.61013672 98.20585449 28.53808594 98.98803711 C25.88784437 127.14578853 22.69072428 154.26021998 -0.25 173.6875 C-0.91 173.6875 -1.57 173.6875 -2.25 173.6875 C-1.85619141 174.55552246 -1.46238281 175.42354492 -1.05664062 176.31787109 C0.39996166 179.5331698 1.85321251 182.74993896 3.30419922 185.96777344 C3.9333904 187.3612841 4.5639191 188.75419164 5.19580078 190.14648438 C6.10279374 192.1455709 7.00498538 194.14676313 7.90625 196.1484375 C8.3327887 197.08446304 8.3327887 197.08446304 8.76794434 198.03939819 C10.75 202.45975659 10.75 202.45975659 10.75 204.6875 C11.72573975 204.94055908 11.72573975 204.94055908 12.72119141 205.19873047 C29.39067161 209.62088391 46.35590417 214.42367786 59.75 225.6875 C59.77578125 224.45773438 59.8015625 223.22796875 59.828125 221.9609375 C59.88443006 220.32809068 59.94177685 218.69527955 60 217.0625 C60.01417969 216.25425781 60.02835937 215.44601563 60.04296875 214.61328125 C60.2622125 209.21988493 61.08116909 205.90032998 64.75 201.6875 C69.25187477 198.14517269 73.21847273 198.26065204 78.70091248 198.29981995 C79.60341628 198.29443441 80.50592008 198.28904887 81.43577248 198.28350013 C84.4604941 198.26919044 87.48477996 198.27633177 90.50952148 198.28344727 C92.67783969 198.27774529 94.84615488 198.2707817 97.01446533 198.26264954 C102.90492329 198.24468419 108.79523257 198.24589287 114.68570971 198.25159192 C119.60138528 198.25467884 124.51703208 198.24859686 129.43270355 198.24255317 C141.02815801 198.2284985 152.62353881 198.23007714 164.21899414 198.24145508 C176.18590398 198.25293794 188.15258975 198.2388598 200.11947006 198.2120586 C210.39050865 198.18991574 220.66147684 198.18326103 230.93253762 198.18913502 C237.06846198 198.19250908 243.2042427 198.19005958 249.34014702 198.17288399 C255.10958051 198.15743954 260.87868156 198.16134287 266.64810181 198.18018913 C268.766098 198.18388189 270.88411869 198.18074664 273.00209236 198.17030334 C275.89248149 198.15713902 278.78176268 198.16860079 281.67210388 198.18629456 C282.93062177 198.17188705 282.93062177 198.17188705 284.21456426 198.15718848 C289.5074419 198.22389747 292.61413059 199.0866729 296.75 202.6875 C300.08333104 206.74393365 300.17874232 210.59493709 300.13768005 215.65135193 C300.14575836 216.84584909 300.14575836 216.84584909 300.15399987 218.0644775 C300.16829479 220.72991028 300.16117202 223.39484751 300.15405273 226.06030273 C300.1597555 227.97246704 300.1667194 229.88462793 300.17485046 231.79678345 C300.19280726 236.98892241 300.19160874 242.18089261 300.18590808 247.37305331 C300.18281989 251.70716352 300.18890456 256.04124114 300.19494683 260.37534672 C300.20899871 270.5996239 300.20742521 280.82381754 300.19604492 291.0480957 C300.18456258 301.59719598 300.19863989 312.14604206 300.2254414 322.69510883 C300.24758989 331.75172226 300.2542377 340.80825585 300.24836498 349.86489445 C300.24499223 355.27423854 300.24743168 360.68341968 300.26461601 366.09274101 C300.28006947 371.17930442 300.27614727 376.26549091 300.25731087 381.35203934 C300.25362058 383.21847651 300.25674624 385.08494151 300.26719666 386.95135307 C300.28037834 389.50022582 300.26888476 392.04784561 300.25120544 394.59666443 C300.26081045 395.3345117 300.27041546 396.07235897 300.28031152 396.83256525 C300.20792336 401.90803168 298.91719042 404.764088 295.75 408.6875 C291.54812193 412.19279757 287.1895409 412.21464162 281.9296875 412.33984375 C280.99478485 412.37214584 280.0598822 412.40444794 279.09664917 412.43772888 C263.25314814 412.92982225 247.39455864 413.04286226 231.54510498 413.21972656 C227.04566244 413.27074088 222.54627203 413.32600156 218.046875 413.38085938 C209.28129457 413.48712857 200.51566939 413.588842 191.75 413.6875 C191.76812744 414.43080566 191.78625488 415.17411133 191.80493164 415.93994141 C191.82608032 417.41213135 191.82608032 417.41213135 191.84765625 418.9140625 C191.86578369 419.88424316 191.88391113 420.85442383 191.90258789 421.85400391 C191.6297152 426.92114066 189.73697184 430.51788172 186.34765625 434.21875 C177.87686796 441.34332499 163.40407956 440.21729724 152.84354401 440.91843987 C150.1975822 441.09436786 147.5522389 441.27792085 144.90692139 441.46327209 C138.32988664 441.92268515 131.75207211 442.37045328 125.1741333 442.81671143 C84.79282465 445.54764019 84.79282465 445.54764019 44.8125 451.6875 C44.0791745 451.8300119 43.345849 451.9725238 42.59030151 452.11935425 C20.8508615 456.38034335 -0.6738078 462.16444973 -21.83984375 468.69140625 C-39.97429411 474.28048424 -58.4693228 476.79248713 -75.97436523 467.76611328 C-82.60442398 464.12590267 -88.42687882 459.47525493 -94.25 454.6875 C-95.54227177 453.63846375 -96.83526888 452.59032053 -98.12890625 451.54296875 C-100.16774006 449.89027397 -102.20495306 448.23574743 -104.23779297 446.57568359 C-109.09433658 442.60975822 -114.00457347 438.72017429 -118.94750977 434.86279297 C-124.21494356 430.74084435 -129.40164391 426.52229446 -134.5703125 422.27734375 C-135.82017056 421.25473261 -137.07499914 420.23816347 -138.33496094 419.22802734 C-139.679936 418.1460803 -141.0101788 417.04568629 -142.32910156 415.93212891 C-146.14008897 412.65658768 -146.14008897 412.65658768 -150.85546875 411.62109375 C-153.79750837 412.93133325 -156.68891728 414.29428085 -159.5625 415.75 C-168.44903607 419.88769943 -168.44903607 419.88769943 -174.25 418.6875 C-177.74317049 416.68932156 -180.56250423 414.31534798 -182.14828491 410.56054688 C-182.8030265 407.90412584 -183.25696787 405.26759694 -183.66796875 402.5625 C-184.06487681 400.30716561 -184.46256361 398.05196819 -184.86083984 395.796875 C-185.18323639 393.88745117 -185.18323639 393.88745117 -185.512146 391.93945312 C-186.32186887 387.20236025 -187.22612617 382.48449482 -188.13525391 377.765625 C-189.75604358 369.34432565 -191.34804871 360.91815428 -192.91848946 352.48731995 C-193.83327488 347.57889745 -194.75386256 342.67173284 -195.6887207 337.76708984 C-196.60939413 332.93614231 -197.51473083 328.10254282 -198.4097805 323.26678467 C-198.74777484 321.45446645 -199.09088957 319.64309394 -199.43969154 317.83282471 C-202.49986095 301.91589748 -205.78662292 284.79295651 -196.7421875 270.265625 C-190.38310476 261.45164055 -181.42440886 255.9559953 -172.125 250.625 C-170.16850134 249.48569541 -168.2127966 248.34502654 -166.2578125 247.203125 C-165.26168945 246.62240234 -164.26556641 246.04167969 -163.23925781 245.44335938 C-158.46222615 242.63737998 -153.72909574 239.76083484 -149 236.875 C-148.05842041 236.30080322 -147.11684082 235.72660645 -146.14672852 235.13500977 C-140.99850963 231.99044075 -135.85853251 228.83265184 -130.72265625 225.66796875 C-129.62397217 224.99217773 -128.52528809 224.31638672 -127.39331055 223.62011719 C-125.17996095 222.25281451 -122.97172489 220.87719796 -120.76879883 219.49316406 C-115.76144871 216.36361733 -110.79392464 213.39053887 -105.4765625 210.81640625 C-93.61549394 204.90085888 -88.81961184 199.286888 -84.51733398 186.60717773 C-83.29646692 182.66433432 -82.23507693 178.6950643 -81.25 174.6875 C-81.84554687 174.40390625 -82.44109375 174.1203125 -83.0546875 173.828125 C-89.28310873 170.59200578 -93.22981754 165.66349997 -97.25 160.0625 C-97.68425293 159.46002441 -98.11850586 158.85754883 -98.56591797 158.23681641 C-101.35535951 154.25535984 -103.43071608 150.222792 -105.5 145.8125 C-106.99950503 142.81747913 -106.99950503 142.81747913 -109.25 140.6875 C-112.93000239 140.00139786 -116.08510581 140.18407325 -119.80859375 140.50390625 C-125.7193252 140.81923472 -129.6982901 138.70489883 -134.24609375 135.109375 C-140.28915305 129.53116642 -142.37873389 124.49525614 -142.75 116.375 C-142.55508901 109.00227994 -140.61781727 103.16372341 -135.4296875 97.80859375 C-133.7511259 96.35126517 -132.03095981 95.01536928 -130.25 93.6875 C-129.59 93.0275 -128.93 92.3675 -128.25 91.6875 C-128.84470647 88.58042229 -128.84470647 88.58042229 -130 85 C-136.32905818 63.00785247 -136.4435005 39.51551224 -126.25 18.6875 C-123.90747747 14.69113646 -121.27804372 11.18765806 -118.25 7.6875 C-117.51007813 6.82511719 -116.77015625 5.96273437 -116.0078125 5.07421875 C-104.20311665 -7.67872316 -87.30968946 -14.89130427 -70.25 -17.3125 C-69.44949219 -17.43496094 -68.64898437 -17.55742187 -67.82421875 -17.68359375 C-43.23972488 -20.70536007 -20.02114743 -14.24581644 0 0 Z " fill="#242225" transform="translate(207.25,28.3125)"/>
<path d="M0 0 C1.68913027 1.05990633 3.37621391 2.12307446 5.0625 3.1875 C6.47208984 4.07501953 6.47208984 4.07501953 7.91015625 4.98046875 C8.92980469 5.64691406 9.94945312 6.31335938 11 7 C11.59566804 7.27353145 12.19133608 7.54706289 12.80505466 7.82888317 C15.02408949 9.00678426 16.40683665 10.04191279 18 12 C19.04744277 16.36755626 18.88377121 20.67238677 18.79467773 25.14379883 C18.79270212 26.49427182 18.7938137 27.84475232 18.79777527 29.19522095 C18.79978163 32.85456043 18.75866621 36.51228975 18.70975757 40.17125535 C18.6659607 43.997525 18.66188357 47.8238327 18.65357971 51.65031433 C18.63183356 58.89306871 18.57440592 66.13508236 18.50413328 73.37751073 C18.42585708 81.62403965 18.38739526 89.87060419 18.35226524 98.11741221 C18.27912157 115.07870308 18.15601908 132.03927319 18 149 C13.13886901 150.08582693 8.27740379 151.17014152 3.41564941 152.25317383 C1.76858853 152.62029126 0.12161296 152.98779167 -1.52526855 153.35571289 C-11.83337976 155.65827133 -22.14911952 157.8964829 -32.5 160 C-40.51254116 161.63271055 -48.50641443 163.31982384 -56.484375 165.11328125 C-57.29543701 165.29535126 -58.10649902 165.47742126 -58.94213867 165.66500854 C-62.92471848 166.56037592 -66.90568795 167.4622453 -70.88476562 168.37304688 C-86.11330756 171.83595498 -86.11330756 171.83595498 -92 172 C-94.66468463 170.06403141 -96.21764603 167.74991756 -98 165 C-98.85271484 163.75863281 -98.85271484 163.75863281 -99.72265625 162.4921875 C-101.06220693 160.51724419 -102.37784143 158.52597322 -103.67578125 156.5234375 C-105.31722536 153.99913352 -107.03199775 151.54387223 -108.79296875 149.1015625 C-116.74267277 137.9190744 -122.2779955 126.26051195 -127.50683594 113.60546875 C-129.151724 109.63363964 -130.8277034 105.67576425 -132.5078125 101.71875 C-134.79757335 96.31271294 -137.08384231 90.90524231 -139.34765625 85.48828125 C-139.81179932 84.38009033 -140.27594238 83.27189941 -140.75415039 82.13012695 C-141.95357998 79.11662768 -143.00737847 76.08709072 -144 73 C-148.65052872 72.73067479 -148.65052872 72.73067479 -153 74 C-153.27073044 79.27819745 -152.56241756 82.88787893 -150.47265625 87.7265625 C-150.20808121 88.34858551 -149.94350616 88.97060852 -149.6709137 89.61148071 C-148.81290737 91.62113156 -147.93771172 93.62279104 -147.0625 95.625 C-146.46862715 97.01085303 -145.87602461 98.39725109 -145.28466797 99.78417969 C-142.59582972 106.07429802 -139.85367544 112.3406164 -137.09765625 118.6015625 C-136.67540771 119.56755371 -136.25315918 120.53354492 -135.81811523 121.52880859 C-135.03964996 123.30428924 -134.25181071 125.07569784 -133.45336914 126.84228516 C-133.11039795 127.6213623 -132.76742676 128.40043945 -132.4140625 129.203125 C-132.1145166 129.86989258 -131.8149707 130.53666016 -131.50634766 131.22363281 C-131 133 -131 133 -132 136 C-134.13097376 137.27930329 -136.19468689 138.37495701 -138.4296875 139.44140625 C-139.08677704 139.76504654 -139.74386658 140.08868683 -140.42086792 140.4221344 C-141.83276584 141.11628592 -143.24688908 141.80592566 -144.66296387 142.49151611 C-147.63234534 143.92917785 -150.5912022 145.38786755 -153.55053711 146.84606934 C-155.02023234 147.57018806 -156.49044666 148.29325421 -157.96118164 149.01525879 C-163.2743845 151.62695137 -168.53155418 154.32835446 -173.75 157.125 C-181.15705155 161.07228589 -188.62963556 164.88556999 -196.12927246 168.65325928 C-197.41113573 169.29759043 -198.69231343 169.9432874 -199.97277832 170.59039307 C-201.76232758 171.49407384 -203.55492949 172.39170178 -205.34765625 173.2890625 C-206.38929932 173.81193848 -207.43094238 174.33481445 -208.50415039 174.87353516 C-211 176 -211 176 -213 176 C-213.09942902 175.42990707 -213.19885803 174.85981415 -213.30130005 174.27244568 C-219.73974983 137.36373053 -219.73974983 137.36373053 -226.71875 100.5546875 C-228.15899494 93.2478161 -229.49327601 85.92306447 -230.79614258 78.59057617 C-230.94204834 77.77306885 -231.0879541 76.95556152 -231.23828125 76.11328125 C-231.36243408 75.40985596 -231.48658691 74.70643066 -231.61450195 73.98168945 C-231.8809223 72.61213028 -232.18996182 71.25042565 -232.53271484 69.89794922 C-234.2053973 63.10409684 -233.35208105 56.54212467 -230.4609375 50.265625 C-225.44065624 42.48016208 -219.30582889 38.30787546 -211.375 33.625 C-209.65202959 32.58783865 -207.92906782 31.55066271 -206.20652771 30.51278687 C-204.39310713 29.42255312 -202.57640664 28.33794521 -200.75927734 27.25390625 C-196.90147078 24.94757456 -193.06855602 22.60168756 -189.23828125 20.25 C-187.33827542 19.08583162 -185.43801408 17.92208155 -183.53765869 16.75848389 C-182.31156733 16.00732951 -181.08593462 15.25542592 -179.86077881 14.50274658 C-178.14258961 13.44854356 -176.42096812 12.39994089 -174.69921875 11.3515625 C-173.71783936 10.75166504 -172.73645996 10.15176758 -171.7253418 9.53369141 C-169.19775526 8.11128716 -166.71760242 7.00211783 -164 6 C-158.46929042 12.6205847 -153.45894013 19.52018321 -148.51708984 26.58398438 C-141.32506966 37.258469 -141.32506966 37.258469 -133 47 C-127.58181629 46.74893699 -123.34482641 44.39412292 -118.64453125 41.9296875 C-117.03713672 41.10801941 -115.42971402 40.28640644 -113.82226562 39.46484375 C-111.30589203 38.16608619 -108.79128229 36.86399368 -106.27758789 35.56005859 C-103.8415576 34.29998573 -101.3996575 33.05191293 -98.95703125 31.8046875 C-98.20388138 31.40893524 -97.45073151 31.01318298 -96.67475891 30.60543823 C-94.82015324 29.66056096 -92.9128443 28.8205985 -91 28 C-87.1660942 29.2779686 -86.89363185 30.47450668 -84.99609375 33.96875 C-84.13902832 35.52710571 -84.13902832 35.52710571 -83.26464844 37.11694336 C-82.36020996 38.7915564 -82.36020996 38.7915564 -81.4375 40.5 C-80.18235916 42.78330548 -78.92584136 45.06585456 -77.66796875 47.34765625 C-77.04841309 48.47574707 -76.42885742 49.60383789 -75.79052734 50.76611328 C-73.33909537 55.1936655 -70.81523249 59.5751035 -68.25 63.9375 C-67.84450928 64.63359375 -67.43901855 65.3296875 -67.02124023 66.046875 C-65.50306378 68.62230023 -64.12320871 70.87679129 -62 73 C-58.91652174 73.16681109 -58.91652174 73.16681109 -56 73 C-53.35720157 68.21887704 -51.9898479 63.65969783 -50.7734375 58.390625 C-50.58028961 57.58260437 -50.38714172 56.77458374 -50.18814087 55.94207764 C-49.57679454 53.37964645 -48.97541436 50.81501256 -48.375 48.25 C-47.76572469 45.67115097 -47.15435888 43.09282219 -46.54043579 40.51507568 C-46.16004458 38.91542536 -45.782646 37.31505984 -45.40853882 35.71392822 C-44.11066202 30.22132404 -44.11066202 30.22132404 -43 28 C-39.95435975 29.40689758 -37.44630639 31.07954052 -34.8125 33.15234375 C-34.03132812 33.76400391 -33.25015625 34.37566406 -32.4453125 35.00585938 C-31.63835937 35.64330078 -30.83140625 36.28074219 -30 36.9375 C-28.39602123 38.19685394 -26.79186077 39.45597651 -25.1875 40.71484375 C-24.12595703 41.55196899 -24.12595703 41.55196899 -23.04296875 42.40600586 C-22.36878906 42.93202393 -21.69460937 43.45804199 -21 44 C-20.32066406 44.56920166 -19.64132813 45.13840332 -18.94140625 45.72485352 C-16.93051393 47.33579175 -16.93051393 47.33579175 -13.75 46.6875 C-12.8425 46.460625 -11.935 46.23375 -11 46 C-7.70295214 37.25169816 -6.12919604 28.21374104 -4.375 19.0625 C-3.90840682 16.64655749 -3.44008724 14.23098083 -2.96841431 11.81602478 C-2.67694104 10.32198691 -2.38855471 8.82734271 -2.10360718 7.33204651 C-1.11168088 2.22336176 -1.11168088 2.22336176 0 0 Z " fill="#FB6D50" transform="translate(250,258)"/>
<path d="M0 0 C21.78 0 43.56 0 66 0 C66.375 16.375 66.375 16.375 66.47802734 21.54052734 C66.51322731 22.88901772 66.5491479 24.23748956 66.5859375 25.5859375 C66.59729736 26.28823486 66.60865723 26.99053223 66.62036133 27.71411133 C66.63051381 31.80801534 66.63051381 31.80801534 69 35 C74.94414603 34.82572233 78.45012759 32.82890182 83.10546875 29.4921875 C84.07520378 28.82487106 84.07520378 28.82487106 85.06452942 28.14407349 C87.11420392 26.73310349 89.15195675 25.30626771 91.1875 23.875 C93.8795896 21.98285102 96.58238618 20.1077157 99.29296875 18.2421875 C99.90657761 17.80268768 100.52018646 17.36318787 101.15238953 16.91036987 C105.42779621 13.97046649 105.42779621 13.97046649 108.20898438 14.11401367 C111.37488547 15.6801335 114.34140185 17.53729611 117.3125 19.4375 C118.01165527 19.87618408 118.71081055 20.31486816 119.43115234 20.7668457 C123.07495586 23.06907818 126.65513169 25.43513983 130.17578125 27.921875 C130.83989014 28.38537354 131.50399902 28.84887207 132.18823242 29.32641602 C133.45313068 30.2153367 134.7078522 31.1189681 135.95043945 32.03881836 C138.96892437 34.15433409 140.63447168 35.01144926 144.3671875 34.89453125 C147.14561117 34.29462046 147.14561117 34.29462046 148 32 C148.33 21.44 148.66 10.88 149 0 C170.78 0 192.56 0 215 0 C215.04030303 36.5727645 215.04030303 36.5727645 215.04882812 51.84960938 C215.05477138 62.41528812 215.06177379 72.98095891 215.07543945 83.54663086 C215.08538551 91.24012065 215.09185324 98.93360401 215.09408849 106.62710005 C215.09539574 110.70329652 215.09848243 114.77947461 215.10573006 118.85566521 C215.11248904 122.68787755 215.11461721 126.52006384 215.11310768 130.35228157 C215.11338406 131.76285061 215.11538991 133.17342047 215.11920547 134.58398438 C215.12414075 136.50165689 215.12239802 138.41934321 215.12025452 140.33702087 C215.12163721 141.95061949 215.12163721 141.95061949 215.12304783 143.59681606 C215 146 215 146 214 147 C212.46965928 147.10580276 210.93447952 147.14239492 209.4005127 147.15148926 C208.40559311 147.15983292 207.41067352 147.16817657 206.38560486 147.17677307 C205.28446854 147.18095749 204.18333221 147.18514191 203.04882812 147.18945312 C201.89580704 147.19774643 200.74278595 147.20603973 199.55482483 147.21458435 C197.0382884 147.23203936 194.52173523 147.24719103 192.00517273 147.26036072 C188.00979854 147.28136276 184.0144885 147.3082621 180.01916504 147.33703613 C172.23404597 147.39211999 164.44889167 147.44014518 156.66371918 147.48697662 C146.81305587 147.54626754 136.9624126 147.60713571 127.11182165 147.67754889 C122.5241523 147.71003346 117.93647388 147.73561308 113.34875488 147.7598877 C101.95231808 147.83223422 90.60583561 147.97997182 79.23500061 148.78160095 C75.12192294 149.05928011 71.05911293 149.09963165 66.9375 149.0625 C66.25107422 149.05798828 65.56464844 149.05347656 64.85742188 149.04882812 C63.23823904 149.03750517 61.61910365 149.01961229 60 149 C60.40992188 148.54109375 60.81984375 148.0821875 61.2421875 147.609375 C62.05042969 146.68898438 62.05042969 146.68898438 62.875 145.75 C63.40867187 145.14671875 63.94234375 144.5434375 64.4921875 143.921875 C69.02726356 138.14141536 68.71821998 132.12013144 68 125 C65.29575066 119.29102918 60.79740228 115.46601956 55 113 C48.10567566 112.15030476 41.6370335 113.50567169 35 115.25 C33.16562129 115.70806052 31.33098038 116.16507211 29.49609375 116.62109375 C28.5819873 116.8516748 27.66788086 117.08225586 26.72607422 117.31982422 C22.5166078 118.37011738 18.29342978 119.35285302 14.0625 120.3125 C13.33611328 120.48362305 12.60972656 120.65474609 11.86132812 120.83105469 C7.68605333 121.77569588 4.3758077 122 0 122 C0 81.74 0 41.48 0 0 Z " fill="#FAD66F" transform="translate(280,281)"/>
<path d="M0 0 C1.74497279 1.44131453 2.9059519 2.72411505 4.14990234 4.61108398 C4.79838135 5.57739746 4.79838135 5.57739746 5.45996094 6.56323242 C5.91193848 7.25449219 6.36391602 7.94575195 6.82958984 8.65795898 C7.80262873 10.10649371 8.77660703 11.55439777 9.75146484 13.00170898 C10.24195313 13.73518555 10.73244141 14.46866211 11.23779297 15.22436523 C13.48030716 18.56275521 15.76649444 21.86818402 18.07958984 25.15795898 C18.47162598 25.72933594 18.86366211 26.30071289 19.26757812 26.8894043 C22.13937025 30.96195 25.21548026 34.16340419 29.70458984 36.40795898 C36.26026361 36.92209723 42.30612064 36.13051733 48.65380859 34.57202148 C49.48795792 34.37735794 50.32210724 34.1826944 51.18153381 33.98213196 C52.98006196 33.56155367 54.77748036 33.13620606 56.57385254 32.70651245 C61.47517708 31.53510501 66.38523417 30.40129415 71.29443359 29.26342773 C72.31473663 29.026064 73.33503967 28.78870026 74.38626099 28.54414368 C85.3781596 25.99773479 96.41318546 23.66578393 107.45458984 21.34545898 C122.24622289 18.22718574 137.02045231 15.04546006 151.76708984 11.72045898 C152.58485901 11.53628418 153.40262817 11.35210937 154.24517822 11.16235352 C162.72299677 9.25030874 171.19142125 7.30319121 179.64599609 5.29077148 C180.34860062 5.12415512 181.05120514 4.95753876 181.77510071 4.78587341 C185.03528232 4.0124745 188.2932977 3.23237065 191.54858398 2.43847656 C192.67514404 2.1693042 193.8017041 1.90013184 194.96240234 1.62280273 C195.93322754 1.38682373 196.90405273 1.15084473 197.90429688 0.90771484 C202.5758239 0.07400815 206.64016366 -0.30165847 210.70458984 2.40795898 C212.2504586 5.4996965 211.99818506 8.00225451 211.70458984 11.40795898 C208.75514006 15.25749642 206.03969129 16.14844847 201.37646484 17.11889648 C200.11213623 17.3912915 198.84780762 17.66368652 197.54516602 17.94433594 C196.87730072 18.08118805 196.20943542 18.21804016 195.52133179 18.35903931 C192.73288972 18.93099047 189.95203221 19.53627335 187.17033386 20.14002991 C185.75516497 20.44692799 184.33964445 20.75220899 182.92378235 21.05589294 C176.21837327 22.49682988 169.54980672 24.07302951 162.89208984 25.72045898 C161.38243652 26.08373291 161.38243652 26.08373291 159.84228516 26.4543457 C158.92415039 26.6826709 158.00601563 26.91099609 157.06005859 27.14624023 C156.26237061 27.34258057 155.46468262 27.5389209 154.64282227 27.74121094 C152.50038316 28.31974165 152.50038316 28.31974165 150.70458984 30.40795898 C150.86876017 33.97388518 150.86876017 33.97388518 151.70458984 37.40795898 C154.84663238 38.97898025 158.19483127 38.55352563 161.64208984 38.53295898 C162.45564941 38.53030029 163.26920898 38.5276416 164.10742188 38.52490234 C169.44361155 38.48436003 174.75347022 38.28810215 180.07958984 37.97045898 C194.82901658 37.10191503 209.60279473 36.77003941 224.37280273 36.45800781 C226.68334297 36.40841502 228.99375851 36.35454357 231.30419922 36.30053711 C234.92512831 36.21907085 238.54573534 36.16131915 242.1673584 36.12185669 C244.16467916 36.09597613 246.16172121 36.05086887 248.15869141 36.00537109 C249.35977539 35.99771729 250.56085938 35.99006348 251.79833984 35.98217773 C253.37131836 35.96030396 253.37131836 35.96030396 254.97607422 35.93798828 C258.43893849 36.5344462 259.62912095 37.61322205 261.70458984 40.40795898 C261.70458984 43.97045898 261.70458984 43.97045898 260.70458984 47.40795898 C257.59930667 50.47919202 255.05715901 50.84207303 250.77880859 51.06811523 C249.60213623 51.13836914 248.42546387 51.20862305 247.21313477 51.28100586 C245.95218994 51.34352539 244.69124512 51.40604492 243.39208984 51.47045898 C241.40381856 51.58704871 239.415547 51.703657 237.42744446 51.8230896 C235.43013794 51.9427081 233.43259736 52.05839697 231.43505859 52.17407227 C226.41062913 52.48908558 221.4038015 52.93625774 216.39208984 53.40795898 C207.96323062 54.18432104 199.53027664 54.73556366 191.08059692 55.22445679 C156.33861517 57.26169532 122.99647115 62.66223272 89.26708984 71.09545898 C88.52281738 71.28150696 87.77854492 71.46755493 87.01171875 71.65924072 C77.82114918 73.97145752 68.74026714 76.54366077 59.70458984 79.40795898 C44.55450484 84.17894731 27.54991799 88.59234607 12.50927734 81.13452148 C6.87768367 77.6677187 1.7920893 73.60727572 -3.29541016 69.40795898 C-4.58997629 68.35593762 -5.88558512 67.3051983 -7.18212891 66.25561523 C-9.90041005 64.05302935 -12.61294107 61.84360743 -15.32275391 59.63061523 C-18.94696199 56.67953697 -22.6112861 53.78369421 -26.29541016 50.90795898 C-36.10124895 43.2485172 -45.75128755 35.39085166 -55.29541016 27.40795898 C-51.88117123 24.63455795 -48.15020902 22.66294258 -44.24853516 20.67749023 C-43.55967224 20.3233757 -42.87080933 19.96926117 -42.16107178 19.60441589 C-39.95762129 18.47293988 -37.75152751 17.34672468 -35.54541016 16.22045898 C-34.1090465 15.48315157 -32.67284711 14.74552404 -31.23681641 14.00756836 C-28.3722513 12.5363019 -25.50253943 11.07576885 -22.62939453 9.62133789 C-19.66308748 8.11692443 -16.72161428 6.57321835 -13.78955078 5.00317383 C-12.34880644 4.24615444 -10.90805163 3.48915499 -9.46728516 2.73217773 C-8.47296478 2.18579399 -8.47296478 2.18579399 -7.45855713 1.62837219 C-2.88765152 -0.74479419 -2.88765152 -0.74479419 0 0 Z " fill="#EECEB2" transform="translate(125.29541015625,404.592041015625)"/>
<path d="M0 0 C0.66 0 1.32 0 2 0 C8.47664725 29.22201559 9.25984971 67.66309331 -7.28125 93.65625 C-15.8137275 105.29144659 -28.09830882 113.09632866 -42.35546875 115.5859375 C-59.58929233 117.54390674 -73.09520502 114.6001881 -87.265625 104.36328125 C-98.04240594 95.67779871 -104.2142939 83.0663465 -110.1875 70.875 C-110.66227783 69.91795166 -111.13705566 68.96090332 -111.6262207 67.97485352 C-116.36869727 57.99056328 -119.64280096 47.51327259 -123 37 C-122.0995697 36.99413376 -121.1991394 36.98826752 -120.27142334 36.98222351 C-111.73962768 36.92405309 -103.20808705 36.85183912 -94.67654037 36.76428509 C-90.2915408 36.71976817 -85.90663016 36.68047223 -81.52148438 36.65356445 C-77.28080079 36.6273434 -73.04046292 36.58681197 -68.79999542 36.53681374 C-67.19112739 36.52027101 -65.58219974 36.50867904 -63.97325897 36.50238609 C-44.97421986 36.4206376 -30.65574422 32.73213999 -17 19 C-8.69458893 10.63035351 -8.69458893 10.63035351 -1.21484375 1.55078125 C-0.81394531 1.03902344 -0.41304688 0.52726562 0 0 Z " fill="#EECEB3" transform="translate(217,87)"/>
<path d="M0 0 C8.55308005 6.96917634 12.24382086 16.04500011 15.671875 26.34375 C15.671875 27.00375 15.671875 27.66375 15.671875 28.34375 C14.85098389 28.35833252 14.03009277 28.37291504 13.18432617 28.38793945 C10.08451817 28.4496695 6.98531229 28.52393813 3.88598633 28.60620117 C1.90662282 28.65508318 -0.07306958 28.69001713 -2.05273438 28.72460938 C-16.29794875 29.12131155 -29.00645673 32.1388215 -39.703125 42.09375 C-45.08164863 47.79092943 -49.51968657 54.25310547 -54.01953125 60.6484375 C-54.8396167 61.76109985 -54.8396167 61.76109985 -55.67626953 62.89624023 C-57.42452662 65.36000871 -57.42452662 65.36000871 -58.77294922 68.34008789 C-60.66971488 71.83494477 -62.1440151 73.9298801 -65.328125 76.34375 C-72.10987373 78.15961238 -79.39556347 77.37393979 -86.328125 77.03125 C-88.26678855 76.97602157 -90.20560287 76.92584042 -92.14453125 76.88085938 C-96.87613889 76.76013665 -101.60046897 76.57067495 -106.328125 76.34375 C-112.12329461 59.36628945 -113.2426255 37.48708445 -105.78125 20.90625 C-97.8346895 5.43507027 -85.90016958 -4.25922399 -69.328125 -9.65625 C-46.75575142 -16.70476615 -19.48581269 -13.86239024 0 0 Z " fill="#FA6D50" transform="translate(196.328125,35.65625)"/>
<path d="M0 0 C2.11361482 3.57353798 3.72965022 7.37662022 5.40820312 11.17163086 C6.24041911 13.04097911 7.10311042 14.89398721 7.96875 16.74804688 C12.92760102 27.83926341 12.92760102 27.83926341 11 35 C10.66060475 36.50762059 10.32211478 38.01544518 9.984375 39.5234375 C9.57836091 41.14200042 9.16666097 42.75914512 8.75 44.375 C8.52820068 45.25003174 8.30640137 46.12506348 8.07788086 47.02661133 C6.46895566 53.32079947 4.73705527 59.57538057 2.95288086 65.82177734 C0.71866198 73.76508464 -1.12547773 81.80321249 -2.94506836 89.8503418 C-3.18362549 90.8794165 -3.42218262 91.90849121 -3.66796875 92.96875 C-3.87703857 93.89107422 -4.0861084 94.81339844 -4.30151367 95.76367188 C-5 98 -5 98 -7 100 C-7.42297363 99.25951416 -7.84594727 98.51902832 -8.28173828 97.75610352 C-9.87831606 94.96459864 -11.47777762 92.17477092 -13.07910156 89.38598633 C-13.76675405 88.18708894 -14.45331013 86.9875619 -15.13867188 85.78735352 C-22.94088286 71.82286504 -22.94088286 71.82286504 -33.234375 59.72265625 C-34.9893499 58.01039091 -36.58900047 56.23344969 -38.1875 54.375 C-41.30337718 50.7642072 -44.51048084 47.24935988 -47.75 43.75 C-48.25853516 43.19884521 -48.76707031 42.64769043 -49.29101562 42.07983398 C-51.90534837 39.24941696 -54.53283202 36.43306381 -57.18359375 33.63671875 C-57.68858398 33.09885742 -58.19357422 32.56099609 -58.71386719 32.00683594 C-60.11043632 30.51956848 -61.51400446 29.03888227 -62.91796875 27.55859375 C-64.96173835 25.04701948 -65.61473601 24.10927798 -66 21 C-65.37915039 18.61816406 -65.37915039 18.61816406 -64.34765625 16.015625 C-63.98349609 15.08105469 -63.61933594 14.14648438 -63.24414062 13.18359375 C-62.85419922 12.21550781 -62.46425781 11.24742187 -62.0625 10.25 C-61.67642578 9.26644531 -61.29035156 8.28289062 -60.89257812 7.26953125 C-59.93817531 4.84228458 -58.97371365 2.41955009 -58 0 C-55.40717182 0.50321158 -52.87884855 1.03428479 -50.3359375 1.75390625 C-35.09751661 5.91532198 -20.2531708 4.94848098 -5.4375 -0.25 C-3 -1 -3 -1 0 0 Z " fill="#EECEB2" transform="translate(195,210)"/>
<path d="M0 0 C19.47 0 38.94 0 59 0 C59 19.8 59 39.6 59 60 C55.08372559 58.43349024 52.4918365 57.12684279 49.12890625 54.77734375 C48.22462891 54.15666016 47.32035156 53.53597656 46.38867188 52.89648438 C44.5053616 51.59105231 42.62514004 50.28115288 40.74804688 48.96679688 C39.38969727 48.03770508 39.38969727 48.03770508 38.00390625 47.08984375 C37.18736572 46.52128662 36.3708252 45.95272949 35.52954102 45.36694336 C32.51467963 43.73773683 30.43658414 43.09044364 27 43 C23.94137795 44.40370272 23.94137795 44.40370272 21.015625 46.62109375 C20.47395691 46.99984146 19.93228882 47.37858917 19.37420654 47.76881409 C17.6541554 48.97573434 15.9519455 50.20521443 14.25 51.4375 C12.53094907 52.6615853 10.80859302 53.8807056 9.08294678 55.09547424 C7.52442761 56.19575563 5.97534428 57.30936628 4.42675781 58.42358398 C2 60 2 60 0 60 C0 40.2 0 20.4 0 0 Z " fill="#FA6D50" transform="translate(358,239)"/>
<path d="M0 0 C16.1816763 -0.04010881 16.1816763 -0.04010881 23.05664062 -0.04882812 C27.75562666 -0.05481585 32.45459328 -0.06191425 37.15356445 -0.07543945 C40.94014257 -0.0862708 44.7266999 -0.09227736 48.51329231 -0.09487724 C49.96104319 -0.09673105 51.40879288 -0.10035081 52.85653496 -0.10573006 C54.87757135 -0.11294367 56.89862848 -0.11340808 58.91967773 -0.11352539 C60.64842384 -0.11685631 60.64842384 -0.11685631 62.41209412 -0.12025452 C65 0 65 0 66 1 C66 10.57 66 20.14 66 30 C44.22 30 22.44 30 0 30 C0 20.1 0 10.2 0 0 Z " fill="#F9D46F" transform="translate(429,239)"/>
<path d="M0 0 C1.15249741 0.00222061 2.30499481 0.00444122 3.49241638 0.00672913 C5.4443264 0.00684242 5.4443264 0.00684242 7.43566895 0.00695801 C8.86661313 0.01206543 10.29755694 0.01728144 11.72850037 0.02259827 C13.18438672 0.02446249 14.64027369 0.02588637 16.09616089 0.02688599 C19.93488791 0.03071086 23.77357731 0.04054088 27.61228943 0.05158997 C32.21445183 0.06359954 36.81662678 0.06820647 41.41880035 0.07404327 C48.41659113 0.08375266 55.41429932 0.10290939 62.41209412 0.12025452 C62.41209412 10.02025452 62.41209412 19.92025452 62.41209412 30.12025452 C40.63209412 30.12025452 18.85209412 30.12025452 -3.58790588 30.12025452 C-3.58790588 0.1667224 -3.58790588 0.1667224 0 0 Z " fill="#F9D46F" transform="translate(283.58790588378906,238.87974548339844)"/>
<path d="M0 0 C2.4440096 1.00222681 3.81233682 2.41002371 5.63964844 4.31176758 C6.3421875 5.04137695 7.04472656 5.77098633 7.76855469 6.52270508 C10.15505884 9.10393348 12.47351002 11.73228933 14.76074219 14.40161133 C16.43294605 16.30141194 18.13134933 18.15763484 19.86230469 20.00317383 C20.40145508 20.57914307 20.94060547 21.1551123 21.49609375 21.74853516 C22.57372247 22.89643705 23.65498691 24.04093894 24.74023438 25.18164062 C27.36701544 27.98520796 29.08738653 30.26974376 30.82714844 33.74926758 C20.92714844 38.69926758 11.02714844 43.64926758 0.82714844 48.74926758 C-4.79663489 43.12548425 -4.79663489 43.12548425 -7.22363281 39.71020508 C-7.75384033 38.96947754 -8.28404785 38.22875 -8.83032227 37.46557617 C-9.37648193 36.69294434 -9.9226416 35.9203125 -10.48535156 35.12426758 C-11.6310464 33.520002 -12.77687959 31.91583521 -13.92285156 30.31176758 C-14.47585937 29.53446289 -15.02886719 28.7571582 -15.59863281 27.95629883 C-17.70856111 24.99821077 -19.84461549 22.06013419 -21.98535156 19.12426758 C-22.61054687 18.26575195 -23.23574219 17.40723633 -23.87988281 16.52270508 C-24.3065625 15.9374707 -24.73324219 15.35223633 -25.17285156 14.74926758 C-21.48723087 10.76569199 -16.84142517 8.28964197 -12.23535156 5.49926758 C-10.87506836 4.64848633 -10.87506836 4.64848633 -9.48730469 3.78051758 C-8.61138672 3.24942383 -7.73546875 2.71833008 -6.83300781 2.17114258 C-6.03515869 1.68226563 -5.23730957 1.19338867 -4.4152832 0.68969727 C-2.17285156 -0.25073242 -2.17285156 -0.25073242 0 0 Z " fill="#F9D46F" transform="translate(121.1728515625,243.250732421875)"/>
<path d="M0 0 C1.29486328 0.01353516 2.58972656 0.02707031 3.92382812 0.04101562 C7.09549214 0.0761263 10.2662709 0.12530653 13.4375 0.1875 C11.72724534 3.85184951 9.67752076 6.1220589 6.75 8.9375 C3.62493821 11.99521132 0.59655975 15.05617011 -2.25 18.375 C-2.806875 19.01566406 -3.36375 19.65632813 -3.9375 20.31640625 C-5.00673487 21.54756851 -6.06944755 22.78443074 -7.125 24.02734375 C-13.20190469 30.70317415 -21.53886463 35.26063308 -30.5625 36.1875 C-34.18896719 36.29487564 -37.80988091 36.28195057 -41.4375 36.25 C-42.89929688 36.24323242 -42.89929688 36.24323242 -44.390625 36.23632812 C-46.78131434 36.22460906 -49.1718744 36.20820219 -51.5625 36.1875 C-45.24063939 23.07588665 -33.71645275 6.89212362 -19.75390625 1.5703125 C-13.28453578 -0.52000478 -6.72654494 -0.13418683 0 0 Z " fill="#F8D36E" transform="translate(197.5625,75.8125)"/>
<path d="M0 0 C18.52970913 -0.77386256 18.52970913 -0.77386256 27 4 C28.03125 4.5775 29.0625 5.155 30.125 5.75 C34.0933095 8.85563352 37.55187035 12.33282932 41 16 C41.5465625 16.57621094 42.093125 17.15242188 42.65625 17.74609375 C44.0625 19.3125 44.0625 19.3125 46 22 C45.505 23.485 45.505 23.485 45 25 C42.92138672 25.91967773 42.92138672 25.91967773 40.1796875 26.68359375 C39.17550781 26.96968506 38.17132813 27.25577637 37.13671875 27.55053711 C36.06035156 27.84323486 34.98398437 28.13593262 33.875 28.4375 C32.79089844 28.74244385 31.70679688 29.0473877 30.58984375 29.36157227 C27.39698099 30.25541249 24.19974636 31.13116077 21 32 C20.14051758 32.23460937 19.28103516 32.46921875 18.39550781 32.7109375 C14.27034685 33.83361885 10.13969798 34.93190485 6 36 C4.76323046 32.28969138 4.50114863 28.61861217 4.125 24.75 C3.26142049 16.36459187 1.82069038 8.22952054 0 0 Z " fill="#F8D46E" transform="translate(228,76)"/>
<path d="M0 0 C1.16385727 -0.0076664 1.16385727 -0.0076664 2.35122681 -0.01548767 C4.91782325 -0.0293961 7.48415159 -0.02842618 10.05078125 -0.02612305 C11.83292745 -0.03000891 13.61507273 -0.03434335 15.3972168 -0.03910828 C19.1330058 -0.04657289 22.8687003 -0.04627719 26.60449219 -0.04101562 C31.39654784 -0.03521657 36.18821754 -0.05216124 40.98020935 -0.0753603 C44.66046416 -0.09007622 48.34062552 -0.09097234 52.02090454 -0.08785057 C53.78798183 -0.08836473 55.55506421 -0.09362013 57.32211304 -0.10366249 C59.79051984 -0.11597016 62.25816826 -0.10927015 64.7265625 -0.09765625 C65.45912262 -0.10529999 66.19168274 -0.11294373 66.94644165 -0.12081909 C71.87382441 -0.06945762 71.87382441 -0.06945762 74.31323242 1.64558411 C75.8585466 4.04302624 75.84037182 5.48027057 75.36328125 8.2746582 C73.80786133 10.40345764 73.80786133 10.40345764 71.36328125 12.2746582 C68.70683868 12.66450098 66.4657837 12.81256324 63.8125 12.77636719 C62.68009384 12.78447166 62.68009384 12.78447166 61.52481079 12.79273987 C59.03306696 12.80523195 56.54247753 12.78873395 54.05078125 12.77075195 C52.31730082 12.77090693 50.58382003 12.77239571 48.8503418 12.77516174 C45.21875679 12.77654595 41.58756662 12.76398436 37.95605469 12.74121094 C33.30195713 12.71282609 28.64851561 12.71556327 23.99436951 12.72830105 C20.41526693 12.73525737 16.83631589 12.72746951 13.25723267 12.71504402 C11.54123516 12.71052905 9.82522139 12.71019312 8.10922241 12.71410942 C5.71049681 12.71702122 3.31267399 12.70051708 0.9140625 12.67871094 C-0.14897598 12.68546341 -0.14897598 12.68546341 -1.23348999 12.69235229 C-4.26224798 12.64662405 -6.38873219 12.4067981 -9.08129883 10.97206116 C-10.63671875 9.2746582 -10.63671875 9.2746582 -11.07421875 5.7121582 C-10.92984375 4.5777832 -10.78546875 3.4434082 -10.63671875 2.2746582 C-6.97422634 -0.16700341 -4.23482001 -0.01432158 0 0 Z " fill="#282626" transform="translate(397.63671875,392.725341796875)"/>
<path d="M0 0 C1.75697205 -0.01418472 1.75697205 -0.01418472 3.54943848 -0.02865601 C5.44792542 -0.01954697 5.44792542 -0.01954697 7.38476562 -0.01025391 C8.68297241 -0.01312408 9.9811792 -0.01599426 11.31872559 -0.01895142 C14.06594553 -0.02337316 16.8128727 -0.016949 19.56005859 -0.00292969 C23.08098403 0.01416268 26.60122345 0.00432061 30.12212372 -0.01364708 C33.48055934 -0.02709598 36.83881051 -0.01767904 40.19726562 -0.01025391 C41.46292358 -0.0163266 42.72858154 -0.02239929 44.03259277 -0.02865601 C45.20390747 -0.01919952 46.37522217 -0.00974304 47.58203125 0 C49.13065857 0.00358017 49.13065857 0.00358017 50.71057129 0.00723267 C53.29101562 0.38818359 53.29101562 0.38818359 55.1204834 1.76010132 C56.29101562 3.38818359 56.29101562 3.38818359 56.72851562 5.82568359 C56.14581558 9.23864103 54.96897713 10.23830047 52.29101562 12.38818359 C49.62828064 12.88938904 49.62828064 12.88938904 46.56030273 12.88989258 C45.40908432 12.89927353 44.25786591 12.90865448 43.07176208 12.9183197 C41.83313919 12.90708572 40.5945163 12.89585175 39.31835938 12.88427734 C37.40646568 12.88646019 37.40646568 12.88646019 35.45594788 12.88868713 C32.76134325 12.88702688 30.06814969 12.87753597 27.3737793 12.85473633 C23.92122818 12.82632237 20.46956075 12.8290979 17.01694393 12.84182644 C13.72152536 12.85045354 10.42625023 12.83534002 7.13085938 12.82177734 C5.26988869 12.8261808 5.26988869 12.8261808 3.37132263 12.83067322 C2.22325638 12.81798904 1.07519012 12.80530487 -0.10766602 12.79223633 C-1.11930313 12.78683334 -2.13094025 12.78143036 -3.17323303 12.77586365 C-5.70898438 12.38818359 -5.70898438 12.38818359 -7.53562927 11.0504303 C-9.363776 8.46056568 -9.09323214 6.46216572 -8.70898438 3.38818359 C-6.29773748 -0.04948951 -4.03274794 0.00932304 0 0 Z " fill="#272526" transform="translate(416.708984375,362.61181640625)"/>
<path d="M0 0 C7.11383101 2.05638961 14.06085738 4.41580394 21 7 C20.45548361 15.22147429 19.12288195 23.12882497 17.4375 31.1875 C17.20353516 32.33025391 16.96957031 33.47300781 16.72851562 34.65039062 C16.15766629 37.43473738 15.58141765 40.21784449 15 43 C12.28966915 41.72594127 9.98829259 40.33943761 7.65234375 38.46875 C6.74452148 37.74751953 6.74452148 37.74751953 5.81835938 37.01171875 C5.19767578 36.51285156 4.57699219 36.01398438 3.9375 35.5 C2.69738872 34.50944672 1.45652996 33.51982835 0.21484375 32.53125 C-0.33051025 32.09361328 -0.87586426 31.65597656 -1.43774414 31.20507812 C-2.9093247 30.06994425 -4.45362199 29.03091867 -6 28 C-5.42100187 21.40474547 -4.20265263 15.3108382 -2.4375 8.9375 C-2.20353516 8.07189453 -1.96957031 7.20628906 -1.72851562 6.31445312 C-1.1582666 4.20802305 -0.57998166 2.10377111 0 0 Z " fill="#F7D26E" transform="translate(217,246)"/>
<path d="M0 0 C2.875 0.5 2.875 0.5 4.8125 1.5625 C6.13431186 3.9728628 6.29257869 5.83699309 5.76171875 8.53125 C3.15716195 14.31405454 -3.08016395 18.30842435 -8.625 21 C-18.26102537 24.37260888 -29.99898003 23.87089061 -39.2421875 19.66796875 C-41.20596202 18.44977667 -42.64624946 17.27541346 -44.125 15.5 C-44.54817323 12.67884512 -44.51218434 11.16049093 -43.0625 8.6875 C-40.03820757 6.83390142 -37.60517804 7.20506966 -34.125 7.5 C-32.7946875 7.995 -32.7946875 7.995 -31.4375 8.5 C-25.01673567 10.43834395 -17.85500341 10.7031515 -11.6875 7.8125 C-9.08494401 6.31535955 -7.63291746 4.98448495 -5.5 2.75 C-3.125 0.5 -3.125 0.5 0 0 Z " fill="#272527" transform="translate(189.125,161.5)"/>
<path d="M0 0 C0.66 0 1.32 0 2 0 C3.33871641 3.45627381 4.67005392 6.91534297 6 10.375 C6.3815625 11.35984375 6.763125 12.3446875 7.15625 13.359375 C7.5171875 14.30039063 7.878125 15.24140625 8.25 16.2109375 C8.58515625 17.08024902 8.9203125 17.94956055 9.265625 18.84521484 C10 21 10 21 10 23 C1.032 23.456 1.032 23.456 -3 20 C-5.61525329 15.94184834 -6.70124748 12.80855413 -6 8 C-4.2344231 4.9396667 -2.49412245 2.49412245 0 0 Z " fill="#E7C8AE" transform="translate(83,133)"/>
</svg>
